# xmcd CD database file
#
# Track frame offsets:
#	183
#	6788
#	37385
#	52535
#	62285
#	78485
#	97763
#	122363
#	138635
#	165035
#	180563
#	204938
#	224363
#	228785
#	240410
#	258785
#
# Disc length: 3716 seconds
#
# Revision: 2
# Processed by: cddbd v1.4b41PL1 Copyright (c) Steve Scherf et al.
# Submitted via: Feurio! 1.50.2ﬂ - http://www.feurio.com
#
DISCID=b60e8210
DTITLE=Franz Liszt - 16 Lieder
DYEAR=1900
DGENRE=
TTITLE0=Vergiftet Sind Meine Lieder
TTITLE1=Die Loreley
TTITLE2=Ein Fichtenbaum Steht Einsam
TTITLE3=Es Muﬂ Ein Wunderbares Sein
TTITLE4=Freudevoll Und Leidvoll
TTITLE5=‹ber Allen Gipfeln Ist Ruh
TTITLE6=Der Du Von Dem Himmel Bist
TTITLE7=Der Du Von Dem Himmel Bist
TTITLE8=Die Drei Zigeuner
TTITLE9=Ihr Glocken Von Marling
TTITLE10=O Komm Im Traum
TTITLE11=Es Rauschen Die Winde
TTITLE12=Ihr Auge
TTITLE13=Blume Und Duft
TTITLE14=Der Hirt
TTITLE15=des Tages Laute Stimmen Schweigen
EXTD=
EXTT0=
EXTT1=
EXTT2=
EXTT3=
EXTT4=
EXTT5=
EXTT6=
EXTT7=
EXTT8=
EXTT9=
EXTT10=
EXTT11=
EXTT12=
EXTT13=
EXTT14=
EXTT15=
PLAYORDER=
